<svg xmlns="http://www.w3.org/2000/svg" viewBox="0 0 64 64" role="img" aria-labelledby="title">
  <title id="title">maiscore</title>
  <rect width="64" height="64" rx="16" fill="#1d1d1f"/>
  <path d="M17 41V24h5.2l.3 2.2c1.4-1.8 3.3-2.8 5.8-2.8 2.8 0 4.8 1.1 6 3.2 1.6-2.1 3.8-3.2 6.5-3.2 4.7 0 7.2 2.8 7.2 8.3V41h-6.2v-8.7c0-2.6-1-3.9-3-3.9-2.2 0-3.4 1.5-3.4 4.3V41h-6.2v-8.7c0-2.6-1-3.9-3-3.9-2.2 0-3.4 1.5-3.4 4.3V41H17Z" fill="#fff"/>
  <path d="M45.5 15.5c2.6 1.2 4.7 3.3 5.9 5.9" fill="none" stroke="#0071e3" stroke-width="3.5" stroke-linecap="round"/>
  <path d="M39.8 18.9c2.2.7 3.9 2.4 4.6 4.6" fill="none" stroke="#5ac8fa" stroke-width="3.2" stroke-linecap="round"/>
</svg>
